<svg width="33" height="33" viewBox="0 0 33 33" fill="none" xmlns="http://www.w3.org/2000/svg">
<g id="Iconly/Bulk/Time Circle">
<g id="export (1) 1" clip-path="url(#clip0_896_1790)">
<g id="Group">
<g id="Group_2">
<path id="Vector" d="M23.478 7.59159L18.4897 2.60321V7.59159H23.478Z" fill="#0381FF"/>
</g>
<g id="Group_3">
<path id="Vector_2" d="M15.8647 17.2166C15.8647 16.7636 16.232 16.3963 16.6851 16.3963H23.9585V9.23224H17.6694C17.2164 9.23224 16.8491 8.86496 16.8491 8.41193V2.12286H5.63818C3.97968 2.12286 2.63037 3.47217 2.63037 5.13068V27.1151C2.63037 28.7736 3.97968 30.1229 5.63818 30.1229H20.9507C22.6092 30.1229 23.9585 28.7736 23.9585 27.1151V18.0369H16.6851C16.232 18.0369 15.8647 17.6696 15.8647 17.2166ZM6.73193 11.4744H16.0288C16.4818 11.4744 16.8491 11.8417 16.8491 12.2947C16.8491 12.7478 16.4818 13.1151 16.0288 13.1151H6.73193C6.2789 13.1151 5.91162 12.7478 5.91162 12.2947C5.91162 11.8417 6.2789 11.4744 6.73193 11.4744ZM6.73193 14.7557H13.8413C14.2943 14.7557 14.6616 15.123 14.6616 15.576C14.6616 16.029 14.2943 16.3963 13.8413 16.3963H6.73193C6.2789 16.3963 5.91162 16.029 5.91162 15.576C5.91162 15.123 6.2789 14.7557 6.73193 14.7557ZM6.73193 18.0369H13.8413C14.2943 18.0369 14.6616 18.4042 14.6616 18.8572C14.6616 19.3103 14.2943 19.6776 13.8413 19.6776H6.73193C6.2789 19.6776 5.91162 19.3103 5.91162 18.8572C5.91162 18.4042 6.2789 18.0369 6.73193 18.0369ZM16.0288 22.9588H6.73193C6.2789 22.9588 5.91162 22.5915 5.91162 22.1385C5.91162 21.6855 6.2789 21.3182 6.73193 21.3182H16.0288C16.4818 21.3182 16.8491 21.6855 16.8491 22.1385C16.8491 22.5915 16.4818 22.9588 16.0288 22.9588Z" fill="#0381FF"/>
<path id="Vector_3" d="M30.3901 16.6366L27.1088 13.3553C26.7885 13.035 26.2691 13.035 25.9487 13.3553C25.6284 13.6757 25.6284 14.195 25.9487 14.5154L27.8297 16.3963H23.9585V18.0369H27.8297L25.9487 19.9178C25.6284 20.2382 25.6284 20.7575 25.9487 21.0779C26.1089 21.2381 26.3189 21.3181 26.5288 21.3181C26.7388 21.3181 26.9487 21.2381 27.1088 21.0779L30.3901 17.7966C30.7105 17.4763 30.7105 16.9569 30.3901 16.6366Z" fill="#0381FF"/>
</g>
</g>
</g>
</g>
<defs>
<clipPath id="clip0_896_1790">
<rect width="28" height="28" fill="white" transform="translate(2.63037 2.12286)"/>
</clipPath>
</defs>
</svg>
